<svg width="21" height="17" viewBox="0 0 21 17" fill="none" xmlns="http://www.w3.org/2000/svg">
<path d="M20.3035 1.00422L11.7148 16.0212C11.643 16.147 11.5211 16.2501 11.3683 16.3145C11.2155 16.3789 11.0404 16.4009 10.8703 16.377C10.7003 16.3532 10.5449 16.2848 10.4284 16.1827C10.312 16.0806 10.2411 15.9504 10.2268 15.8125L9.50066 8.83168L0.789607 8.24977C0.617562 8.23832 0.455105 8.18149 0.327643 8.08819C0.200181 7.99488 0.114902 7.87035 0.0851439 7.73407C0.0553858 7.59779 0.0828264 7.45745 0.163174 7.335C0.243522 7.21255 0.372246 7.11489 0.529214 7.0573L19.2682 0.174534C19.4131 0.121331 19.5748 0.104923 19.7316 0.127514C19.8884 0.150105 20.0329 0.210612 20.1456 0.300911C20.2583 0.391209 20.3338 0.506976 20.362 0.632663C20.3902 0.758351 20.3697 0.887942 20.3033 1.00403L20.3035 1.00422Z" fill="#FA7436"/>
</svg>
